<svg width="300" height="248" viewBox="0 0 300 248" fill="none" xmlns="http://www.w3.org/2000/svg">
<g opacity="0.4">
<path d="M122.697 31.6479C109.966 36.0489 100.967 26.1705 88.291 32.039C75.6151 37.9076 71.6913 60.2086 65.6547 75.0759C59.6181 89.9433 47.2439 89.1604 27.3245 96.9852C7.40505 104.81 -10.1006 150.585 8.0085 184.623C26.1169 218.661 56.9019 240.18 96.7414 222.965C136.581 205.75 187.587 228.051 211.129 236.267C234.67 244.483 280.847 226.877 288.695 187.362C296.542 147.846 261.834 130.632 260.626 111.461C259.419 92.2899 257.608 57.8606 219.58 57.4695C181.551 57.0784 196.462 14.69 165.857 13.6504C143.667 12.8964 131.751 28.5178 122.697 31.6479Z" fill="#ACD5D4"/>
<path d="M228.403 23.9874C207.791 20.6616 197.658 40.0851 210.616 40.4923C223.574 40.8989 237.488 39.2209 239.66 49.27C241.833 59.3198 260.67 42.1455 248.319 37.4791C235.968 32.8121 244.793 26.6317 228.403 23.9874Z" fill="#ACD5D4"/>
<path d="M274.805 89.7374C265.903 94.4085 274.16 129.852 285.335 130.409C296.51 130.966 291.567 118.709 287.269 111.466C282.971 104.223 283.831 85.0018 274.805 89.7374Z" fill="#ACD5D4"/>
<path d="M266.754 52.5981C259.114 53.8762 260.952 66.5266 267.613 64.8554C274.276 63.1841 273.416 51.4839 266.754 52.5981Z" fill="#ACD5D4"/>
<path d="M119.978 3.17082C102.481 12.3584 106.01 29.3566 124.276 19.6066C142.543 9.85655 136.955 -5.74393 119.978 3.17082Z" fill="#ACD5D4"/>
<path d="M38.4399 50.8066C19.6058 59.1824 5.13087 76.9924 10.9329 86.4636C16.735 95.9347 25.5456 79.7778 39.7288 79.2207C53.912 78.6637 67.8809 37.714 38.4399 50.8066Z" fill="#ACD5D4"/>
<path d="M134.16 226.771C107.675 228.187 99.3789 249.315 131.136 247.354C162.893 245.394 170.832 224.811 134.16 226.771Z" fill="#ACD5D4"/>
</g>
<path opacity="0.4" d="M126.082 69.1273C115.271 72.5202 107.629 64.9045 96.8646 69.429C86.0998 73.9536 82.7681 91.1467 77.642 102.609C72.516 114.071 62.008 113.468 45.0924 119.5C28.1768 125.533 13.3115 160.824 28.6895 187.067C44.0676 213.309 70.2097 229.899 104.041 216.627C137.872 203.355 181.186 220.548 201.178 226.882C221.169 233.216 260.382 219.643 267.047 189.177C273.711 158.712 244.236 145.44 243.211 130.66C242.185 115.88 240.648 89.3364 208.354 89.0346C176.06 88.7329 186.404 57.9231 162.733 55.2512C144.023 53.1411 133.772 66.7142 126.082 69.1273Z" fill="#ACD5D4"/>
<path d="M161.853 81.3569C161.853 81.3569 167.28 85.5703 171.975 86.5662C176.67 87.5621 168.111 100.494 168.111 100.494C168.111 100.494 158.391 103.882 158.391 110.804C158.391 117.726 161.631 119.346 156.476 123.323C151.321 127.3 149.554 132.602 160.305 132.602C171.056 132.602 177.832 121.409 177.832 121.409L178.421 86.3552C178.421 86.3552 173.413 75.6039 173.413 75.1617C173.413 74.7195 169.436 74.1309 169.436 74.1309L161.853 81.3569Z" fill="#18203D"/>
<path d="M152.977 126.844C146.147 129.862 125.463 165.646 121.946 175.368C118.43 185.09 125.669 191.916 134.15 187.365C142.631 182.815 156.904 162.13 156.904 162.13L152.977 126.844Z" fill="#18203D"/>
<path d="M190.964 220.699H154.686C154.686 220.699 156.229 192.395 155.972 177.47C155.864 171.312 156.584 163.035 157.757 154.917V154.912C159.429 143.363 162.021 132.137 164.46 127.811C168.617 120.439 168.55 118.551 175.989 117.795C181.956 117.188 193.948 114.199 199.535 120.187C200.888 121.632 201.86 123.603 202.287 126.262C203.367 132.992 190.964 220.699 190.964 220.699Z" fill="#E5D157"/>
<path opacity="0.3" d="M190.964 220.699H154.686C154.686 220.699 156.229 192.395 155.972 177.47C155.864 171.312 156.584 163.035 157.757 154.917C160.226 165.041 165.664 169.615 169.64 173.123C176.673 179.327 197.348 120.192 197.348 120.192C197.348 120.192 198.135 120.171 199.534 120.186C200.887 121.632 201.859 123.602 202.287 126.262C203.367 132.992 190.964 220.699 190.964 220.699Z" fill="#4A6C8F"/>
<path d="M174.628 93.3128C174.139 98.0538 170.672 101.58 166.885 101.189C163.099 100.798 160.426 96.6379 160.915 91.8976C161.404 87.1573 164.871 83.6313 168.658 84.0217C172.445 84.4122 175.117 88.5718 174.628 93.3128Z" fill="#18203D"/>
<path d="M166.195 99.5159L162.059 103.651C161.773 103.938 161.308 103.938 161.022 103.651C160.735 103.365 160.735 102.9 161.022 102.614L165.157 98.4784C165.444 98.1921 165.909 98.1921 166.195 98.4784C166.481 98.7646 166.481 99.2297 166.195 99.5159Z" fill="#18203D"/>
<path d="M174.113 92.4293C173.831 95.1644 171.831 97.1985 169.646 96.9734C167.461 96.7476 165.919 94.3479 166.201 91.6128C166.484 88.8778 168.483 86.8437 170.668 87.0688C172.853 87.2946 174.395 89.6943 174.113 92.4293Z" fill="white" stroke="#272525" stroke-width="0.672" stroke-miterlimit="10"/>
<path d="M162.058 139.093L159.1 165.067C159.1 165.067 160.144 178.473 160.602 189.894C160.689 192.075 160.757 194.185 160.792 196.113C161.003 208.152 161.847 221.877 161.847 221.877L141.361 221.455C141.361 221.455 151.074 183.653 150.863 176.683C150.755 173.184 149.798 169.105 148.924 165.287C148.06 161.501 147.273 157.982 147.483 155.564C147.91 150.708 152.134 141.417 152.134 141.417C152.134 141.417 151.707 127.898 152.978 126.843C154.244 125.789 172.075 118.873 172.075 118.873L162.058 139.093Z" fill="#D15735"/>
<path opacity="0.3" d="M141.361 221.456C141.361 221.456 151.074 183.655 150.863 176.684C150.755 173.186 149.798 169.107 148.924 165.289C152.057 173.248 156.964 183.346 160.602 189.895C160.689 192.076 160.757 194.186 160.792 196.114C161.003 208.153 161.847 221.878 161.847 221.878L141.361 221.456Z" fill="#4A6C8F"/>
<path d="M173.885 116.918C171.943 117.242 162.195 129.214 157.739 134.799C156.516 136.333 156.809 138.575 158.385 139.743L161.214 141.838L155.264 143.974C153.877 144.472 152.959 145.792 152.971 147.265C153.029 154.838 153.803 178.294 160.792 196.114C160.792 196.114 160.37 161.479 164.593 142.683C168.816 123.887 173.885 116.918 173.885 116.918Z" fill="#FC8165"/>
<path d="M216.333 135.713C216.178 136.67 215.572 138.645 214.687 141.284C210.679 153.173 200.915 178.525 200.915 184.919C200.915 192.734 209.789 221.877 209.789 221.877H170.506L173.464 195.903L176.237 185.156L176.843 182.811L192.045 123.042L191.412 117.975C191.412 117.975 202.607 120.716 209.367 123.464C216.122 126.211 217.176 130.435 216.333 135.713Z" fill="#D15735"/>
<path opacity="0.3" d="M206.893 211.928C208.493 217.623 209.789 221.877 209.789 221.877H170.506L173.464 195.903L173.844 194.437L176.237 185.157L184.679 184.864L194.994 184.504C194.994 184.504 181.15 181 181.983 178.835C182.816 176.664 210.504 157.65 211.173 142.808L214.686 141.285C210.679 153.174 200.915 178.526 200.915 184.92C200.915 186.191 201.151 188.027 201.542 190.209C202.644 196.319 204.984 205.142 206.893 211.928Z" fill="#4A6C8F"/>
<path opacity="0.3" d="M206.892 211.928C196.12 206.357 181 198.233 173.844 194.437L176.236 185.156L184.678 184.863C189.812 186.504 195.909 188.444 201.542 190.208C202.643 196.32 204.984 205.142 206.892 211.928Z" fill="#4A6C8F"/>
<path d="M190.569 116.918C190.569 116.918 179.587 157.044 173.463 195.903C173.463 195.903 190.426 167.631 195.863 152.397C196.389 150.924 195.859 149.284 194.574 148.392L189.091 144.584L195.118 142.575C196.752 142.03 197.739 140.37 197.432 138.674C196.306 132.463 193.711 118.534 192.892 117.552C191.837 116.284 190.569 116.918 190.569 116.918Z" fill="#FC8165"/>
<path d="M179.296 173.25L179.229 173.727L177.468 186.085C177.468 186.085 165.399 183.337 164.633 181.804C163.867 180.279 163.867 178.297 163.867 178.297C163.867 178.297 162.798 176.919 162.341 176.153C161.884 175.393 161.582 172.181 161.582 172.181C161.582 172.181 153.787 168.062 152.866 167.45C152.396 167.141 151.737 166.308 151.442 165.569C151.193 164.951 151.2 164.406 151.798 164.272C151.885 164.252 151.993 164.238 152.107 164.238C153.941 164.238 164.176 168.364 164.176 168.364C164.176 168.364 168.907 166.382 170.137 166.537C171.037 166.644 175.566 170.038 177.905 171.966C178.718 172.638 179.263 173.136 179.296 173.25Z" fill="#DD9091"/>
<path d="M179.297 173.251L177.466 186.082C177.466 186.082 165.396 183.335 164.635 181.806C163.868 180.278 163.868 178.293 163.868 178.293C163.868 178.293 162.799 176.919 162.34 176.152C161.883 175.391 161.579 172.181 161.579 172.181C161.579 172.181 153.785 168.06 152.869 167.448C152.01 166.877 150.487 164.562 151.799 164.269C155.833 167.752 163.827 170.797 163.827 170.797C163.827 170.797 166.99 177.855 169.182 179.316C171.131 180.612 174.038 178.164 177.902 171.964C178.716 172.639 179.261 173.133 179.297 173.251Z" fill="#D36E75"/>
<path d="M179.296 173.25L179.229 173.727C179.175 173.794 179.141 173.828 179.141 173.828C179.141 173.828 171.494 167.766 169.827 167.592C168.154 167.417 163.941 168.996 163.941 168.996C163.941 168.996 154.768 165.381 151.442 165.569C151.193 164.951 151.2 164.406 151.798 164.272C151.885 164.252 151.993 164.238 152.107 164.238C153.941 164.238 164.176 168.364 164.176 168.364C164.176 168.364 168.907 166.382 170.137 166.537C171.037 166.644 175.566 170.038 177.905 171.966C178.718 172.638 179.263 173.136 179.296 173.25Z" fill="white"/>
<path d="M230.062 200.126C228.369 207.519 215.488 204.139 202.817 199.072C190.147 194 173.885 186.612 173.885 186.612L175.737 179.754V179.748L177.738 172.346L178.108 170.982L210.632 181.539L210.626 181.533C210.544 181.183 207.184 167.402 205.539 156.038C205.137 153.265 204.839 150.636 204.715 148.383C204.181 138.567 210.282 129.055 212.18 126.344C212.535 125.845 212.74 125.577 212.74 125.577C218.657 127.898 222.458 132.753 224.357 150.497C225.678 162.793 228.719 178.328 229.897 189.173C230.422 193.979 230.581 197.857 230.062 200.126Z" fill="#D15735"/>
<path d="M222.171 187.666C221.873 187.574 212.432 184.477 207.833 183.001C204.206 181.833 185.779 175.232 177.738 172.347L178.109 170.983L210.632 181.54C213.713 182.892 221.914 187.522 222.171 187.666Z" fill="white"/>
<path d="M229.898 189.174C226.945 182.672 223.514 161.986 222.176 148.147C221.023 136.192 217.011 129.71 212.18 126.345C212.535 125.846 212.74 125.578 212.74 125.578C218.656 127.899 222.458 132.754 224.356 150.498C225.679 162.793 228.72 178.329 229.898 189.174Z" fill="white"/>
<path opacity="0.3" d="M230.062 200.126C228.369 207.519 215.488 204.139 202.817 199.072C190.147 194 173.885 186.612 173.885 186.612L175.737 179.754C181.946 183.355 215.416 196.016 223.118 195.733C226.986 195.589 228.895 192.425 229.898 189.173C230.422 193.979 230.581 197.858 230.062 200.126Z" fill="#4A6C8F"/>
<path opacity="0.3" d="M221.475 182.599L210.63 181.539C210.63 181.539 210.63 181.539 210.625 181.534C210.543 181.184 207.183 167.402 205.537 156.038C210.986 165.941 221.475 182.599 221.475 182.599Z" fill="#4A6C8F"/>
<path d="M188.954 103.848L189.781 120.64C189.781 120.64 188.624 121.797 186.68 122.934C184.93 123.957 182.553 124.971 179.806 125.131C173.988 125.465 172.491 123.135 172.491 123.135L172.558 117.234L172.656 108.833C172.656 108.833 170.263 109.152 168.226 107.603H168.221C166.95 106.641 165.824 104.954 165.505 102.016C164.821 95.6889 166.41 82.2052 171.863 77.3541L171.869 77.3487C173.01 76.3299 174.323 75.6922 175.815 75.5793C175.815 75.5793 177.708 75.2964 180.203 75.209C184.879 75.0498 191.68 75.5638 192.112 79.9009C192.776 86.5524 188.954 103.848 188.954 103.848Z" fill="#DD9091"/>
<path d="M188.954 103.848L189.782 120.64C189.782 120.64 188.624 121.797 186.68 122.934C184.735 121.144 183.66 118.247 184.036 114.024C184.977 103.477 179.514 107.11 179.514 107.11C182.899 101.672 184.355 84.5149 180.203 75.209C184.88 75.0498 191.68 75.5638 192.112 79.9009C192.776 86.5524 188.954 103.848 188.954 103.848Z" fill="#D36E75"/>
<path d="M168.221 107.603C166.95 106.641 165.824 104.953 165.505 102.016C164.821 95.6884 166.41 82.2047 171.863 77.3535C167.45 86.0888 165.911 99.3561 168.221 107.603Z" fill="white"/>
<path d="M180.846 108.601C179.123 111.446 176.257 115.33 172.559 117.234L172.656 108.833C172.656 108.833 175.794 108.9 179.514 107.109C180.445 106.662 181.381 107.716 180.846 108.601Z" fill="#D36E75"/>
<path d="M169.896 104.733H167.853C166.937 104.733 166.193 103.99 166.193 103.073C166.193 102.156 166.937 101.413 167.853 101.413H169.896C170.813 101.413 171.556 102.156 171.556 103.073C171.556 103.99 170.813 104.733 169.896 104.733Z" fill="#18203D"/>
<path d="M167.389 103.866H161.54C161.135 103.866 160.807 103.537 160.807 103.132C160.807 102.727 161.135 102.398 161.54 102.398H167.389C167.794 102.398 168.123 102.727 168.123 103.132C168.123 103.537 167.795 103.866 167.389 103.866Z" fill="#18203D"/>
<path d="M203.63 71.7879C203.63 72.2919 203.569 72.7811 203.45 73.2488C203.167 74.3549 202.576 75.3374 201.768 76.0987C200.714 77.0866 199.283 77.6988 197.72 77.6988C194.458 77.6988 191.809 75.0545 191.809 71.7879C191.809 71.6131 191.814 71.4384 191.834 71.2684C191.932 70.0803 192.39 68.9944 193.089 68.1147C194.17 66.7512 195.847 65.877 197.72 65.877C200.986 65.877 203.63 68.5213 203.63 71.7879Z" fill="#82435C"/>
<path d="M203.631 71.7879C203.631 72.2919 203.569 72.7811 203.451 73.2488C203.209 70.8155 202.067 68.3613 198.857 67.4098C196.342 66.6639 194.432 67.2398 193.09 68.1147C194.17 66.7512 195.847 65.877 197.72 65.877C200.987 65.877 203.631 68.5213 203.631 71.7879Z" fill="white"/>
<path d="M201.768 76.099C200.714 77.0868 199.283 77.699 197.719 77.699C194.458 77.699 191.809 75.0547 191.809 71.7881C191.809 71.6134 191.814 71.4387 191.834 71.2686C193.784 69.9468 196.814 68.5679 199.479 70.2499C201.588 71.5818 202.128 73.8767 201.768 76.099Z" fill="#4B1C4A"/>
<path d="M229.075 126.473C229.075 126.756 229.065 127.039 229.054 127.306C229.054 127.306 229.054 127.312 229.054 127.316H229.049C228.607 135.388 221.857 137.07 221.857 137.07C221.178 132.451 214.073 124.888 208.775 126.921C203.471 128.947 195.347 129.406 195.8 123.54C196.253 117.67 189.483 119.023 187.003 114.851C184.524 110.679 188.017 103.241 188.017 103.241L189.148 94.6646C189.148 94.6646 189.096 94.5772 188.994 94.4126C188.598 93.7903 187.486 92.072 185.876 89.9263C183.844 87.2201 184.863 81.6902 184.863 81.6902C184.863 81.6902 185.413 77.6159 186.195 75.5529C186.041 75.743 183.536 78.9021 181.997 82.9146C179.42 83.7842 175.541 84.5557 172.228 82.9301C170.813 82.2406 169.444 81.7984 168.19 81.531C168.761 78.681 170.309 76.0622 170.402 75.903C168.488 77.2974 167.238 79.6433 166.559 81.2582C163.771 80.9134 161.852 81.3556 161.852 81.3556C161.852 81.3556 161.852 81.3502 161.857 81.3348C164.805 67.712 185.876 70.9739 185.876 70.9739C198.845 70.6392 202.004 82.4819 200.085 90.4921C198.166 98.497 202.338 108.986 208.661 107.86C214.973 106.734 215.992 113.046 217.798 115.53C219.599 118.011 229.075 117.671 229.075 126.473Z" fill="#82435C"/>
<path d="M229.074 126.473C229.074 126.756 229.064 127.039 229.053 127.307C228.349 118.16 218.379 120.326 215.956 115.567C213.445 110.628 214.032 109.455 208.846 109.538C203.655 109.625 199.807 105.942 198.716 98.4099C197.631 90.8788 199.807 86.7783 197.548 79.6685C195.289 72.5534 185.248 70.1254 174.701 71.9674C164.49 73.7522 162.005 80.8882 161.855 81.3357C164.804 67.713 185.875 70.9748 185.875 70.9748C198.844 70.6402 202.003 82.4829 200.084 90.4931C198.165 98.498 202.337 108.987 208.66 107.861C214.972 106.735 215.99 113.047 217.796 115.531C219.598 118.011 229.074 117.671 229.074 126.473Z" fill="white"/>
<path d="M229.05 127.317C228.608 135.388 221.858 137.071 221.858 137.071C221.179 132.452 214.075 124.889 208.776 126.921C203.472 128.948 195.349 129.406 195.802 123.541C196.255 117.671 189.484 119.024 187.005 114.852C184.525 110.68 188.018 103.241 188.018 103.241L189.15 94.6651C189.15 94.6651 189.098 94.5777 188.995 94.4131C193.131 97.4075 197.869 99.1769 196.228 104.929C193.481 114.544 207.217 106.992 208.73 115.094C210.242 123.196 215.597 119.215 220.408 124.025C223.602 127.219 226.982 129.019 229.05 127.317Z" fill="#4B1C4A"/>
<path d="M193.744 85.7734C193.744 85.7734 193.813 74.297 185.887 69.9209H179.447C179.447 69.9209 188.451 73.0087 188.447 86.5166L193.744 85.7734Z" fill="#E5D157"/>
<path d="M191.432 101.927C195.238 101.927 198.324 98.0638 198.324 93.2981C198.324 88.5323 195.238 84.6689 191.432 84.6689C187.625 84.6689 184.539 88.5323 184.539 93.2981C184.539 98.0638 187.625 101.927 191.432 101.927Z" fill="#18203D"/>
<path d="M193.744 97.4518C195.941 97.4518 197.721 95.2227 197.721 92.473C197.721 89.7233 195.941 87.4941 193.744 87.4941C191.548 87.4941 189.768 89.7233 189.768 92.473C189.768 95.2227 191.548 97.4518 193.744 97.4518Z" fill="#E5D157"/>
<path d="M161.857 103.791C161.456 103.066 158.915 104.202 156.631 106.194C153.955 108.519 153.693 108.673 153.693 108.673C153.693 108.673 150.797 109.326 150.432 109.398C150.072 109.47 149.419 110.628 149.419 110.628C149.419 110.628 148.261 110.845 147.397 111.281C146.528 111.713 145.149 113.308 145.149 113.308C145.149 113.308 143.487 113.596 142.978 114.172C142.51 114.713 140.853 120.124 140.566 122.162C140.54 122.321 140.525 122.455 140.519 122.568C140.447 124.163 140.663 125.393 140.663 125.393L140.386 126.077V126.082L139.002 129.519L148.138 131.324C148.138 131.324 149.702 128.937 151.884 127.348C153.211 126.38 155.448 124.662 155.938 124.091C157.214 122.578 158.263 115.268 159.076 113.987C159.889 112.707 159.076 111.431 158.026 112.244C157.856 112.377 157.63 112.629 157.368 112.959C157.358 112.928 157.347 112.907 157.337 112.881V112.876C157.331 112.85 157.321 112.824 157.311 112.799C157.193 112.506 156.637 111.878 156.01 111.235C158.247 108.622 161.556 105.427 161.869 104.331C161.935 104.095 161.93 103.915 161.857 103.791ZM153.838 118.294C153.838 118.294 153.683 117.044 153.817 115.444V115.423C153.842 115.444 153.873 115.454 153.9 115.475C153.905 115.48 153.91 115.48 153.91 115.48C154.383 115.773 154.949 115.829 155.427 115.742C154.563 117.09 153.838 118.294 153.838 118.294ZM156.256 114.065H156.261C156.358 114.09 156.436 114.101 156.518 114.111C156.41 114.27 156.297 114.42 156.184 114.584C155.979 114.363 155.696 114.09 155.377 113.792L155.5 113.813C155.793 113.936 156.045 114.018 156.256 114.065Z" fill="#DD9091"/>
<path d="M159.074 113.987C158.261 115.268 157.212 122.579 155.936 124.091C155.447 124.662 153.209 126.38 151.882 127.347C149.7 128.937 148.137 131.324 148.137 131.324L139 129.518L140.384 126.082V126.076C144.391 124.471 145.451 123.041 145.451 122.275C145.451 121.467 145.441 116.852 145.441 116.852C145.441 116.852 146.979 116.174 147.324 116.271C147.663 116.374 150.838 117.161 151.229 116.996C151.625 116.832 149.31 114.918 149.31 114.918C149.31 114.918 149.67 114.377 150.478 114.377C151.198 114.377 153.349 115.247 153.816 115.443C153.683 117.043 153.837 118.293 153.837 118.293C153.837 118.293 154.562 117.089 155.427 115.741C155.427 115.741 156.235 115.458 156.235 115.309C156.235 115.227 156.209 114.882 156.183 114.584C156.162 114.326 156.147 114.105 156.147 114.105L156.255 114.064H156.26L157.078 113.771L157.336 112.882C157.346 112.907 157.356 112.928 157.366 112.959C157.629 112.63 157.855 112.378 158.025 112.244C159.074 111.431 159.886 112.706 159.074 113.987Z" fill="#D36E75"/>
<path d="M147.248 124.453C147.248 124.453 149.492 121.702 152.748 120.327" stroke="#AF565B" stroke-width="1.344" stroke-miterlimit="10" stroke-linecap="round" stroke-linejoin="round"/>
<path d="M145.295 120.255L145.439 116.853L147.321 116.274C147.321 116.274 151.012 117.432 151.229 116.998C151.446 116.563 147.972 113.668 147.972 113.668L146.018 113.234" stroke="#AF565B" stroke-width="1.344" stroke-miterlimit="10" stroke-linecap="round" stroke-linejoin="round"/>
<path d="M150.36 111.208L153.472 112.149C153.472 112.149 155.933 114.176 156.367 114.827C156.801 115.478 155.064 116.202 153.906 115.478C152.749 114.754 151.156 114.465 151.156 114.465L149.184 114.496" stroke="#AF565B" stroke-width="1.344" stroke-miterlimit="10" stroke-linecap="round" stroke-linejoin="round"/>
<path d="M154.053 109.326C154.053 109.326 157.02 112.077 157.309 112.8C157.598 113.524 157.526 114.682 155.5 113.814" stroke="#AF565B" stroke-width="1.344" stroke-miterlimit="10" stroke-linecap="round" stroke-linejoin="round"/>
<path d="M157.295 106.624C155.602 107.864 154.279 109.032 154.279 109.032L155.256 110.423C155.138 110.366 153.281 109.415 152.951 109.358C152.612 109.301 150.415 110.315 150.415 110.315L149.793 111.045C149.793 111.045 147.03 112.233 146.639 112.511C146.243 112.794 145.734 113.695 145.734 113.695C145.734 113.695 145.06 113.808 143.707 114.714C142.879 115.264 141.505 119.23 140.564 122.163C140.853 120.125 142.509 114.714 142.977 114.173C143.486 113.597 145.147 113.309 145.147 113.309C145.147 113.309 146.526 111.714 147.396 111.282C148.26 110.845 149.417 110.629 149.417 110.629C149.417 110.629 150.071 109.472 150.431 109.399C150.796 109.327 153.692 108.674 153.692 108.674C153.692 108.674 153.955 108.52 156.629 106.195C158.913 104.203 161.455 103.067 161.856 103.792C160.395 104.368 158.519 105.729 157.295 106.624Z" fill="white"/>
<path d="M151.11 130.276C151.11 130.276 150.863 131.006 150.436 132.277C150.431 132.283 150.426 132.287 150.431 132.293C147.967 139.608 139.54 164.754 137.251 172.682C134.56 181.988 133.527 192.123 121.53 188.398C116.617 186.875 115.212 182.569 115.701 177.235C115.752 176.648 115.829 176.047 115.927 175.434C117.095 168.063 121.293 159.209 124.673 153.004C130.877 141.625 137.045 126.552 137.045 126.552L138.897 127.04L151.11 130.276Z" fill="#D15735"/>
<path opacity="0.3" d="M150.431 132.292C147.967 139.607 139.54 164.754 137.251 172.681C134.56 181.988 133.527 192.122 121.53 188.397C116.617 186.875 115.212 182.568 115.701 177.234C120.202 183.691 129.246 180.532 133.784 165.155C137.76 151.692 146.562 137.935 150.431 132.292Z" fill="#4A6C8F"/>
<path d="M138.897 127.039C135.852 134.288 128.953 150.349 123.778 159.82C118.958 168.637 116.787 173.397 115.928 175.433C117.096 168.062 121.294 159.208 124.673 153.003C130.877 141.624 137.045 126.551 137.045 126.551L138.897 127.039Z" fill="white"/>
<path d="M70.1785 220.703C70.1785 220.703 59.7914 221.99 56.5852 220.07C53.3791 218.149 57.2599 216.812 55.668 215.083C54.076 213.354 46.5866 213.461 44.7829 210.808C42.9793 208.156 48.0213 206.908 46.133 204.294C44.2446 201.679 36.1067 202.383 33.0713 198.349C30.0359 194.315 35.7418 194.092 37.1698 192.737C38.5978 191.383 36.5321 189.051 31.7031 187.148C26.8748 185.243 23.7802 180.625 24.3487 178.943C24.9172 177.262 29.2752 179.479 29.7677 177.628C30.2596 175.777 20.4135 169.508 23.1983 165.505C25.983 161.504 33.0081 167.615 35.4723 170.378C37.9366 173.141 34.8944 165.239 35.3312 163.718C35.768 162.198 39.3397 161.305 42.6695 170.301C45.9992 179.295 47.3284 181.346 49.2779 180.471C51.2267 179.594 48.6792 174.832 50.552 173.786C52.4249 172.741 55.672 177.699 56.5711 185.138C57.4703 192.577 61.4485 191.91 61.4747 189.249C61.5016 186.589 65.086 184.366 66.346 190.115C67.606 195.864 66.3084 199.096 67.1081 200.875C67.9078 202.655 69.3371 199.263 71.3955 199.763C73.4538 200.264 74.5034 212.117 74.5948 215.947C74.6862 219.777 70.1785 220.703 70.1785 220.703Z" fill="#18203D"/>
<path d="M69.8431 205.474C69.3848 205.414 68.9661 205.738 68.9063 206.195L67.9917 213.243C67.2922 212.396 66.5926 211.554 65.8951 210.716L66.3937 205.699C66.4394 205.24 66.1041 204.83 65.6444 204.785C65.1861 204.74 64.7756 205.074 64.7299 205.534L64.3932 208.919C64.1096 208.581 63.8267 208.244 63.5438 207.908L63.9174 197.574C63.9342 197.112 63.5733 196.725 63.1117 196.709C62.6507 196.692 62.2623 197.052 62.2455 197.514L61.939 206.006C60.7691 204.623 59.6092 203.261 58.4621 201.923L58.5636 195.226C58.5703 194.764 58.2014 194.384 57.7404 194.377C57.278 194.369 56.8984 194.739 56.8916 195.201L56.8191 200.009C56.0012 199.059 55.1915 198.122 54.3918 197.201L53.8932 184.789C53.8744 184.328 53.4853 183.969 53.0243 183.988C52.5633 184.005 52.2044 184.395 52.2226 184.857L52.6379 195.186C51.3409 193.7 50.0756 192.259 48.8485 190.869L47.9204 184.652C47.8526 184.195 47.4265 183.879 46.9702 183.948C46.5166 184.017 46.1988 184.442 46.2667 184.899L46.815 188.573C46.012 187.669 45.2298 186.791 44.4697 185.94L42.7292 175.203C42.6553 174.747 42.2259 174.437 41.7703 174.511C41.3147 174.588 41.0049 175.014 41.0788 175.471L42.402 183.635C41.4632 182.591 40.5668 181.599 39.718 180.662L38.7799 174.407C38.7114 173.95 38.2853 173.635 37.829 173.704C37.3727 173.774 37.0576 174.198 37.1261 174.655L37.6933 178.434C33.4328 173.762 30.7918 170.958 30.7179 170.879C30.4007 170.543 29.8712 170.527 29.5359 170.845C29.1999 171.162 29.1844 171.691 29.5016 172.027C29.5769 172.107 32.326 175.026 36.7431 179.874L33.1499 179.361C32.6943 179.296 32.2696 179.614 32.2044 180.071C32.1392 180.527 32.4571 180.951 32.914 181.016L38.5071 181.814C39.4344 182.836 40.4182 183.926 41.4524 185.078L34.2197 183.837C33.7641 183.759 33.332 184.065 33.254 184.52C33.1761 184.975 33.4819 185.407 33.9368 185.485L43.2494 187.082C44.1116 188.046 45.0013 189.046 45.9172 190.078L41.4094 189.43C40.9525 189.364 40.5284 189.681 40.4626 190.138C40.3967 190.596 40.7146 191.019 41.1716 191.085L47.6295 192.013C48.9426 193.501 50.2993 195.047 51.6924 196.644L41.7246 196.413C41.2636 196.403 40.8799 196.768 40.8692 197.229C40.8584 197.691 41.224 198.074 41.6856 198.085L53.1768 198.351C54.0813 199.393 54.9993 200.455 55.9273 201.534L50.9901 201.971C50.5292 202.011 50.1905 202.419 50.2308 202.878C50.2718 203.338 50.6777 203.678 51.1373 203.637L57.2659 203.095C58.4903 204.524 59.7302 205.981 60.9801 207.46L52.4396 207.948C51.978 207.975 51.6265 208.369 51.6527 208.83C51.6796 209.292 52.0741 209.644 52.5351 209.618L62.3275 209.058C62.65 209.442 62.9733 209.827 63.2972 210.213L59.8357 210.347C59.374 210.364 59.0145 210.753 59.032 211.214C59.0501 211.676 59.4385 212.036 59.9002 212.017L64.6506 211.833C65.4207 212.757 66.1921 213.687 66.9643 214.623L60.2127 215.471C59.7544 215.529 59.4298 215.947 59.4876 216.406C59.5454 216.864 59.9634 217.188 60.4217 217.131L68.2216 216.151C69.1059 217.228 69.9903 218.311 70.8719 219.4C71.1159 219.701 71.5265 219.788 71.8638 219.637C71.9283 219.608 71.9908 219.57 72.0479 219.523C72.4068 219.232 72.4619 218.706 72.1709 218.347C71.2657 217.23 70.3579 216.118 69.4507 215.013L70.5668 206.412C70.624 205.953 70.3014 205.533 69.8431 205.474Z" fill="#18203D"/>
<path d="M73.7017 217.428C73.7017 217.428 66.8453 211.172 66.2902 207.905C65.7352 204.638 68.8741 206.481 69.1207 204.412C69.3673 202.342 64.9771 197.358 65.7244 194.613C66.4717 191.869 70.2194 194.546 70.8921 191.767C71.5648 188.987 66.3984 183.91 67.3661 179.539C68.3338 175.168 71.7737 178.884 73.5102 179.065C75.2466 179.246 75.6257 176.51 74.1244 172.159C72.6232 167.808 73.9504 163.06 75.4113 162.474C76.8715 161.887 77.891 166.102 79.4218 165.366C80.9526 164.63 79.4991 154.381 83.8012 153.95C88.1033 153.518 88.0361 161.775 87.596 165.029C87.1552 168.282 90.7248 161.677 92.0009 161.095C93.2777 160.512 95.9382 162.404 91.798 169.834C87.6578 177.264 87.0429 179.342 88.7565 180.15C90.4708 180.958 92.2099 176.495 93.9941 177.154C95.7783 177.813 94.3106 182.859 89.8169 187.754C85.3233 192.649 88.0671 194.945 89.8747 193.429C91.6824 191.912 95.2467 193.046 92.0997 197.21C88.9528 201.374 86.0275 202.363 85.2897 203.928C84.5518 205.493 87.6618 204.5 88.5113 206.175C89.3607 207.85 81.9801 215.393 79.4527 217.662C76.9246 219.931 73.7017 217.428 73.7017 217.428Z" fill="#18203D"/>
<path d="M83.7678 208.421C83.544 208.077 83.0844 207.982 82.7417 208.206L77.4665 211.653C77.6338 210.694 77.7978 209.737 77.9597 208.784L81.6275 206.227C81.9635 205.993 82.0455 205.531 81.8116 205.195C81.5778 204.86 81.1154 204.776 80.7794 205.011L78.3044 206.736C78.369 206.351 78.4328 205.965 78.496 205.581L85.6736 199.874C85.9941 199.619 86.0472 199.153 85.7925 198.833C85.5378 198.512 85.0715 198.459 84.7503 198.714L78.8521 203.404C79.1088 201.819 79.3575 200.251 79.598 198.707L84.1683 194.914C84.4835 194.652 84.5265 194.185 84.2651 193.87C84.0043 193.554 83.536 193.511 83.2208 193.773L79.9394 196.496C80.1074 195.398 80.2714 194.312 80.4313 193.242L88.5061 185.749C88.8065 185.471 88.8239 185.001 88.5451 184.701C88.2675 184.401 87.7978 184.384 87.4974 184.662L80.7774 190.898C81.0307 189.167 81.272 187.483 81.5011 185.856L85.1548 181.646C85.4236 181.337 85.39 180.868 85.0809 180.599C84.7731 180.334 84.3034 180.365 84.0346 180.673L81.8755 183.161C82.0213 182.099 82.1617 181.066 82.2968 180.063L88.5276 172.699C88.7923 172.386 88.7534 171.919 88.4402 171.654C88.1257 171.392 87.6594 171.429 87.3953 171.741L82.6583 177.34C82.8203 176.106 82.9722 174.93 83.1133 173.818L86.7858 169.579C87.0539 169.269 87.0203 168.801 86.7112 168.532C86.4014 168.265 85.9337 168.298 85.6649 168.607L83.4459 171.168C84.1367 165.604 84.5036 162.208 84.5137 162.113C84.5574 161.706 84.2631 161.339 83.8552 161.296C83.4479 161.253 83.0824 161.548 83.0394 161.954C83.0286 162.051 82.6476 165.587 81.9279 171.357L80.2008 168.641C79.9818 168.296 79.5235 168.194 79.1774 168.413C78.832 168.633 78.7298 169.091 78.9496 169.437L81.6369 173.665C81.4823 174.879 81.3157 176.171 81.1362 177.531L77.8011 171.943C77.5914 171.591 77.1358 171.476 76.7844 171.686C76.4329 171.896 76.318 172.351 76.5277 172.702L80.8211 179.897C80.6685 181.034 80.5086 182.21 80.3413 183.422L78.1788 180.011C77.9597 179.665 77.5014 179.563 77.156 179.782C76.8099 180.002 76.7071 180.46 76.9268 180.806L80.0254 185.692C79.7802 187.434 79.5214 189.24 79.2479 191.099L73.6562 184.25C73.3968 183.934 72.9298 183.886 72.6126 184.145C72.2954 184.404 72.2484 184.871 72.5071 185.189L78.9536 193.084C78.7728 194.295 78.5867 195.525 78.3952 196.772L75.2542 193.698C74.9612 193.41 74.4915 193.417 74.2059 193.709C73.919 194.002 73.9243 194.472 74.2173 194.758L78.1163 198.574C77.8589 200.223 77.5921 201.899 77.3166 203.593L72.0636 198.121C71.7793 197.825 71.3109 197.815 71.0153 198.099C70.7196 198.383 70.7102 198.852 70.9938 199.148L77.0169 205.422C76.9443 205.861 76.8717 206.301 76.7978 206.742L74.7119 204.487C74.4337 204.186 73.9647 204.169 73.6643 204.446C73.3639 204.724 73.3458 205.193 73.624 205.494L76.4874 208.588C76.3086 209.64 76.1272 210.696 75.9417 211.755L71.4769 207.696C71.1739 207.42 70.7048 207.443 70.4293 207.746C70.1538 208.049 70.1759 208.518 70.479 208.793L75.6373 213.483C75.4216 214.7 75.2011 215.92 74.9767 217.142C74.9149 217.48 75.0923 217.807 75.3893 217.947C75.4458 217.973 75.5069 217.994 75.5721 218.005C75.9746 218.079 76.3617 217.813 76.4356 217.41C76.6661 216.156 76.8919 214.903 77.1137 213.654L83.5521 209.446C83.8962 209.223 83.9922 208.764 83.7678 208.421Z" fill="#18203D"/>
<path d="M72.8552 218.121C72.8552 218.121 63.4203 224 59.473 223.582C55.5257 223.163 58.6686 220.141 56.3623 219.186C54.056 218.231 46.8864 221.679 43.9639 219.929C41.0414 218.178 45.3422 214.724 42.3551 213.048C39.3681 211.372 31.8403 215.685 27.1128 213.153C22.386 210.622 27.7855 207.859 28.5563 205.915C29.3271 203.972 26.295 202.648 20.792 202.97C15.289 203.291 10.2436 200.222 10.04 198.348C9.83705 196.474 15.0269 196.664 14.6741 194.661C14.322 192.658 2.03311 191.013 2.92956 185.914C3.82601 180.813 13.3254 183.565 16.934 185.127C20.5427 186.688 14.0821 180.433 13.824 178.772C13.566 177.112 16.6088 174.657 23.8355 181.837C31.0615 189.017 33.2589 190.4 34.7454 188.686C36.2325 186.971 31.6495 183.519 32.9874 181.675C34.3254 179.831 39.6685 183.158 43.8577 189.925C48.047 196.692 51.5817 194.273 50.4191 191.697C49.2566 189.121 51.7181 185.379 55.5001 190.356C59.2821 195.334 59.475 199.027 61.0401 200.385C62.6059 201.742 62.4674 197.835 64.6749 197.398C66.8825 196.961 73.1878 207.915 74.9868 211.564C76.7857 215.215 72.8552 218.121 72.8552 218.121Z" fill="#6DA1A4"/>
<path d="M65.7302 203.596C65.2612 203.742 65.0024 204.242 65.1496 204.709L67.4163 211.909C66.3639 211.406 65.3136 210.906 64.2673 210.411L62.5066 205.353C62.3453 204.89 61.8393 204.645 61.3756 204.806C60.914 204.967 60.668 205.473 60.8293 205.937L62.0174 209.349C61.5934 209.151 61.17 208.952 60.7473 208.754L56.4915 198.629C56.3014 198.177 55.7806 197.964 55.329 198.155C54.8774 198.345 54.6644 198.865 54.8539 199.317L58.351 207.637C56.6058 206.827 54.8801 206.033 53.1766 205.255L50.2829 198.757C50.0834 198.308 49.5585 198.107 49.1103 198.306C48.6614 198.505 48.4598 199.031 48.6601 199.479L50.7379 204.145C49.5256 203.595 48.3268 203.054 47.1447 202.523L41.1209 190.785C40.8971 190.349 40.3615 190.177 39.9254 190.401C39.4886 190.624 39.3172 191.16 39.541 191.597L44.5541 201.365C42.641 200.512 40.7775 199.689 38.9745 198.897L35.3034 193.32C35.0339 192.91 34.4829 192.797 34.073 193.066C33.6671 193.335 33.5501 193.887 33.8196 194.297L35.9888 197.592C34.8115 197.079 33.6657 196.583 32.5529 196.103L26.0795 186.533C25.8047 186.127 25.253 186.02 24.8464 186.295C24.4419 186.573 24.3337 187.122 24.6085 187.529L29.5302 194.805C28.1594 194.218 26.8516 193.662 25.6158 193.139L21.9178 187.531C21.6477 187.122 21.0966 187.008 20.6874 187.278C20.2788 187.549 20.1646 188.099 20.4347 188.509L22.6691 191.897C16.4773 189.298 12.6798 187.775 12.5737 187.733C12.118 187.55 11.6006 187.771 11.4192 188.227C11.2371 188.683 11.4588 189.2 11.9138 189.381C12.022 189.425 15.9753 191.01 22.3963 193.709L18.7043 194.82C18.2359 194.961 17.9685 195.456 18.1103 195.926C18.2514 196.396 18.7467 196.662 19.2164 196.52L24.962 194.791C26.3127 195.363 27.7474 195.974 29.2574 196.621L21.733 198.656C21.2593 198.784 20.9797 199.271 21.1074 199.745C21.2351 200.218 21.7229 200.499 22.196 200.37L31.8836 197.75C33.1449 198.294 34.4486 198.859 35.7926 199.445L31.1598 200.835C30.6901 200.975 30.4233 201.47 30.5638 201.94C30.7049 202.41 31.2002 202.676 31.6699 202.536L38.3079 200.546C40.2379 201.393 42.2357 202.277 44.2907 203.194L34.5823 207.423C34.1334 207.619 33.9271 208.143 34.1227 208.591C34.3182 209.041 34.8417 209.247 35.2913 209.051L46.4841 204.175C47.8221 204.776 49.1802 205.389 50.5564 206.014L45.9936 208.64C45.5669 208.884 45.4224 209.428 45.667 209.853C45.9116 210.278 46.4552 210.424 46.8799 210.179L52.5436 206.919C54.362 207.75 56.2073 208.6 58.0728 209.468L50.0605 213.752C49.6277 213.984 49.4651 214.522 49.6963 214.954C49.9281 215.387 50.4664 215.55 50.8985 215.319L60.0847 210.406C60.5672 210.632 61.0504 210.858 61.5349 211.086L58.2596 212.761C57.8228 212.984 57.6501 213.52 57.8732 213.956C58.097 214.393 58.6319 214.565 59.068 214.342L63.5637 212.043C64.7182 212.59 65.8774 213.142 67.0393 213.699L60.912 217.532C60.496 217.792 60.3703 218.34 60.6304 218.756C60.8905 219.172 61.4381 219.298 61.8548 219.038L68.9336 214.61C70.2669 215.253 71.6028 215.902 72.9387 216.557C73.3083 216.737 73.7425 216.639 73.9998 216.342C74.0489 216.284 74.0926 216.221 74.1268 216.15C74.3426 215.71 74.1604 215.178 73.7203 214.962C72.3487 214.29 70.9779 213.624 69.6097 212.964L66.8437 204.177C66.6965 203.708 66.1979 203.449 65.7302 203.596Z" fill="#528E8D"/>
<path d="M69.9281 218.325C69.9281 218.325 59.711 213.944 57.7985 210.466C55.8859 206.989 60.1619 207.84 59.627 205.402C59.0921 202.963 52.1651 199.051 51.9312 195.652C51.6974 192.253 56.99 193.808 56.6574 190.399C56.3248 186.99 48.4832 183.279 47.8589 177.952C47.2346 172.627 52.5878 175.478 54.6233 175C56.6587 174.521 56.0116 171.277 52.6019 166.945C49.1922 162.613 48.8266 156.719 50.2485 155.481C51.6705 154.244 54.4808 158.611 55.9229 157.176C57.3657 155.741 51.69 144.719 56.3873 142.539C61.0845 140.359 64.2564 149.726 65.0372 153.58C65.8181 157.434 67.2582 148.557 68.4732 147.396C69.6882 146.235 73.4419 147.329 71.6806 157.363C69.9193 167.397 70.0403 169.99 72.2975 170.23C74.5541 170.47 74.7671 164.737 77.0445 164.78C79.3219 164.824 79.6465 171.111 76.4881 178.415C73.3297 185.721 77.3362 187.238 78.785 184.812C80.2338 182.386 84.7121 182.267 82.7895 188.215C80.8669 194.163 77.9464 196.433 77.7273 198.493C77.5082 200.554 80.6357 198.207 82.2559 199.769C83.8761 201.331 78.4927 212.765 76.5258 216.327C74.5588 219.89 69.9281 218.325 69.9281 218.325Z" fill="#6DA1A4"/>
<path d="M77.7737 204.177C77.3853 203.876 76.8282 203.949 76.5279 204.337L71.9159 210.312C71.7278 209.161 71.5376 208.013 71.3454 206.872L74.489 202.537C74.7766 202.14 74.6879 201.584 74.2914 201.296C73.895 201.01 73.3392 201.097 73.0509 201.494L70.9301 204.419C70.8508 203.957 70.7722 203.496 70.6929 203.037L76.5682 193.758C76.8309 193.343 76.7073 192.795 76.2927 192.533C75.8787 192.271 75.3297 192.393 75.0669 192.807L70.2386 200.433C69.906 198.538 69.5706 196.667 69.236 194.825L72.9145 188.737C73.1679 188.317 73.0335 187.772 72.6135 187.518C72.1941 187.263 71.6478 187.399 71.3938 187.819L68.7528 192.19C68.5109 190.881 68.2696 189.588 68.0291 188.314L74.2175 176.662C74.4473 176.229 74.2827 175.691 73.8499 175.461C73.4172 175.23 72.8796 175.396 72.6491 175.829L67.4995 185.526C67.1057 183.468 66.716 181.469 66.335 179.537L68.8126 173.337C68.9947 172.881 68.773 172.365 68.3174 172.182C67.8644 172.003 67.345 172.223 67.1629 172.678L65.6986 176.341C65.4459 175.083 65.1986 173.858 64.9567 172.671L69.109 161.889C69.285 161.432 69.0572 160.918 68.5996 160.742C68.1406 160.568 67.6279 160.793 67.4518 161.252L64.2948 169.449C63.9924 167.988 63.7014 166.598 63.4245 165.284L65.9123 159.045C66.0937 158.589 65.872 158.072 65.4163 157.891C64.9607 157.71 64.444 157.931 64.2625 158.387L62.7592 162.157C61.3528 155.591 60.4314 151.604 60.4059 151.493C60.295 151.014 59.8179 150.716 59.3401 150.828C58.8623 150.939 58.5653 151.416 58.6762 151.894C58.7024 152.008 59.6613 156.158 61.1176 162.969L58.0956 160.575C57.7119 160.271 57.1528 160.335 56.8483 160.719C56.5439 161.104 56.6084 161.662 56.9928 161.967L61.6961 165.693C61.9992 167.128 62.3177 168.654 62.6504 170.263L56.6797 165.253C56.304 164.937 55.7436 164.987 55.4284 165.362C55.1132 165.737 55.1623 166.298 55.5379 166.613L63.2249 173.064C63.4991 174.41 63.7807 175.803 64.0683 177.241L60.2802 174.233C59.8965 173.928 59.3374 173.991 59.033 174.376C58.7279 174.76 58.7918 175.319 59.1761 175.624L64.6032 179.933C65.0111 182 65.4284 184.145 65.8504 186.356L56.8309 180.807C56.4136 180.551 55.8659 180.681 55.6092 181.098C55.3525 181.515 55.4822 182.062 55.9001 182.32L66.2987 188.716C66.5702 190.157 66.8437 191.622 67.1172 193.109L62.3547 190.865C61.9098 190.655 61.3816 190.847 61.1727 191.29C60.9637 191.734 61.1538 192.263 61.5974 192.472L67.5096 195.256C67.8671 197.223 68.2246 199.223 68.5794 201.249L60.4839 197.124C60.0464 196.901 59.5121 197.075 59.2897 197.512C59.0673 197.95 59.2407 198.485 59.6781 198.707L68.9605 203.436C69.0512 203.961 69.1412 204.488 69.2313 205.015L65.9848 203.285C65.5514 203.053 65.0138 203.218 64.7833 203.65C64.5528 204.084 64.7168 204.621 65.1496 204.852L69.6056 207.227C69.8173 208.487 70.0269 209.753 70.2346 211.024L63.5872 208.188C63.1356 207.995 62.6141 208.205 62.4219 208.656C62.2297 209.107 62.4394 209.629 62.8903 209.821L70.5699 213.099C70.8044 214.56 71.0349 216.027 71.2614 217.497C71.3246 217.904 71.6538 218.204 72.0449 218.245C72.1195 218.253 72.1968 218.252 72.2748 218.24C72.7593 218.165 73.0919 217.712 73.0173 217.227C72.7848 215.717 72.5476 214.211 72.307 212.711L77.9357 205.419C78.2341 205.034 78.1628 204.477 77.7737 204.177Z" fill="#528E8D"/>
<mask id="mask0_51_29" style="mask-type:luminance" maskUnits="userSpaceOnUse" x="219" y="165" width="81" height="58">
<path d="M279.279 222.741H239.561C228.353 222.741 219.268 213.656 219.268 202.448C219.268 181.946 235.887 165.326 256.39 165.326H262.45C282.952 165.326 299.572 181.946 299.572 202.448C299.572 213.656 290.487 222.741 279.279 222.741Z" fill="white"/>
</mask>
<g mask="url(#mask0_51_29)">
<path d="M255.154 218.221C255.154 218.221 248.927 221.561 246.409 213.79C243.891 206.018 249.235 200.825 255.824 198.668C262.412 196.511 267.454 183.846 275.107 184.219C282.76 184.592 277.022 196.25 274.432 203.433C271.841 210.616 271.62 217.247 268.626 220.869C265.632 224.491 258.009 225.816 255.154 218.221Z" fill="#18203D"/>
<path d="M274.513 193.412C274.389 193.068 274.008 192.89 273.664 193.015L271.786 193.693C273.345 191.527 274.301 190.284 274.345 190.228C274.569 189.939 274.516 189.521 274.227 189.298C273.937 189.074 273.52 189.127 273.297 189.415C273.252 189.473 272.252 190.772 270.627 193.033L270.595 191.247C270.588 190.88 270.287 190.589 269.92 190.595C269.554 190.602 269.263 190.904 269.269 191.271L269.333 194.854C268.026 196.711 266.462 198.99 264.747 201.6L264.64 195.596C264.633 195.229 264.331 194.938 263.965 194.945C263.598 194.951 263.307 195.253 263.313 195.619L263.456 203.584C262.76 204.665 262.045 205.793 261.316 206.963L260.903 202.959C260.865 202.594 260.543 202.321 260.175 202.367C259.811 202.405 259.546 202.73 259.584 203.095L260.174 208.816C259.09 210.593 257.984 212.455 256.876 214.385C256.316 212.212 255.295 208.008 254.613 205.154C254.528 204.797 254.168 204.578 253.814 204.662C253.458 204.747 253.237 205.105 253.323 205.461C254.952 212.283 255.585 214.937 255.965 215.99C251.297 224.285 246.696 233.72 243.623 243.071C243.509 243.419 243.698 243.794 244.046 243.908C244.12 243.933 244.193 243.943 244.266 243.941C244.54 243.937 244.794 243.761 244.884 243.485C247.934 234.203 252.507 224.832 257.146 216.593C258.344 216.259 264.171 214.98 267.831 214.195C268.189 214.118 268.417 213.766 268.34 213.408C268.263 213.05 267.915 212.82 267.552 212.898C262.378 214.008 259.585 214.623 258.054 214.997C259.148 213.089 260.241 211.25 261.313 209.493L267.769 207.488C268.119 207.379 268.314 207.008 268.206 206.658C268.097 206.308 267.726 206.11 267.376 206.221L262.372 207.775C263.129 206.557 263.873 205.383 264.596 204.262L272.317 200.877C272.653 200.73 272.806 200.339 272.659 200.003C272.512 199.667 272.12 199.515 271.785 199.662L265.916 202.235C267.606 199.665 269.147 197.421 270.435 195.592L274.116 194.262C274.459 194.137 274.638 193.757 274.513 193.412Z" fill="#18203D"/>
<path d="M239.28 214.765C239.28 214.765 238.175 220.817 231.518 218.315C224.86 215.813 224.224 209.356 226.33 203.7C228.436 198.043 222.548 187.739 226.954 182.731C231.36 177.723 236.184 187.955 239.67 193.615C243.155 199.276 247.55 203.025 248.392 207.029C249.234 211.032 246.001 216.942 239.28 214.765Z" fill="#18203D"/>
<path d="M232.892 188.124C232.59 188.022 232.263 188.184 232.16 188.486L231.604 190.133C230.975 187.896 230.647 186.571 230.633 186.51C230.557 186.2 230.245 186.01 229.935 186.086C229.625 186.162 229.436 186.474 229.51 186.784C229.525 186.845 229.867 188.231 230.526 190.564L229.292 189.616C229.039 189.422 228.676 189.469 228.482 189.722C228.288 189.976 228.335 190.338 228.588 190.532L231.063 192.432C231.618 194.33 232.321 196.631 233.168 199.215L229.021 196.03C228.768 195.836 228.406 195.883 228.211 196.136C228.017 196.39 228.064 196.752 228.318 196.946L233.819 201.171C234.177 202.231 234.557 203.33 234.958 204.461L232.008 202.57C231.739 202.398 231.379 202.469 231.21 202.745C231.038 203.013 231.116 203.37 231.385 203.543L235.6 206.245C236.222 207.948 236.889 209.71 237.603 211.512C235.819 210.714 232.403 209.128 230.089 208.044C229.801 207.908 229.455 208.034 229.321 208.321C229.185 208.609 229.31 208.954 229.598 209.089C235.127 211.681 237.277 212.689 238.2 213.002C241.315 220.681 245.243 228.933 249.943 236.099C250.117 236.366 250.475 236.44 250.742 236.265C250.798 236.228 250.845 236.184 250.883 236.134C251.029 235.945 251.047 235.676 250.908 235.465C246.243 228.352 242.344 220.155 239.251 212.527C239.674 211.53 241.964 206.868 243.415 203.95C243.557 203.665 243.441 203.318 243.155 203.176C242.87 203.035 242.525 203.147 242.381 203.436C240.33 207.562 239.233 209.797 238.657 211.043C237.952 209.262 237.293 207.52 236.679 205.837L238.816 200.354C238.931 200.057 238.785 199.722 238.488 199.606C238.191 199.49 237.855 199.636 237.74 199.934L236.084 204.184C235.665 203.007 235.27 201.864 234.899 200.763L236.783 193.669C236.865 193.36 236.682 193.045 236.374 192.963C236.064 192.881 235.749 193.065 235.667 193.372L234.235 198.764C233.402 196.218 232.71 193.952 232.163 192.083L233.254 188.855C233.356 188.554 233.194 188.226 232.892 188.124Z" fill="#18203D"/>
<path d="M267.605 213.812C267.605 213.812 261.571 215.011 261.449 207.9C261.327 200.788 267.097 197.822 273.131 197.7C279.166 197.578 286.581 188.313 292.859 190.567C299.138 192.823 291.397 201.071 287.415 206.395C283.432 211.718 281.563 217.184 278.15 219.439C274.737 221.695 268.053 220.862 267.605 213.812Z" fill="#6DA1A4"/>
<path d="M290.028 198.072C290.013 197.753 289.741 197.509 289.422 197.525L287.686 197.613C289.534 196.206 290.647 195.413 290.697 195.377C290.958 195.194 291.019 194.833 290.835 194.573C290.651 194.313 290.291 194.252 290.031 194.434C289.978 194.471 288.817 195.299 286.889 196.769L287.316 195.273C287.403 194.966 287.226 194.647 286.92 194.559C286.612 194.472 286.293 194.649 286.206 194.956L285.349 197.956C283.789 199.17 281.908 200.67 279.816 202.408L281.252 197.381C281.339 197.074 281.162 196.755 280.855 196.667C280.548 196.58 280.229 196.757 280.142 197.064L278.237 203.733C277.382 204.456 276.5 205.214 275.596 206.003L276.27 202.564C276.331 202.25 276.133 201.941 275.814 201.886C275.502 201.825 275.198 202.029 275.137 202.342L274.175 207.256C272.82 208.46 271.427 209.73 270.014 211.056C270.099 209.104 270.318 205.344 270.475 202.793C270.495 202.475 270.251 202.201 269.934 202.181C269.616 202.161 269.341 202.404 269.322 202.722C268.945 208.816 268.798 211.187 268.847 212.16C262.853 217.882 256.624 224.569 251.689 231.576C251.506 231.837 251.568 232.197 251.829 232.38C251.883 232.418 251.942 232.446 252.003 232.463C252.232 232.529 252.489 232.447 252.634 232.241C257.532 225.287 263.721 218.646 269.677 212.963C270.76 212.99 275.937 213.405 279.183 213.681C279.501 213.708 279.781 213.472 279.808 213.154C279.835 212.837 279.603 212.557 279.281 212.53C274.69 212.14 272.208 211.941 270.838 211.864C272.234 210.554 273.611 209.3 274.951 208.11L280.835 208.08C281.154 208.079 281.411 207.819 281.41 207.5C281.408 207.182 281.15 206.923 280.83 206.925L276.269 206.948C277.21 206.126 278.126 205.338 279.013 204.588L286.303 203.731C286.62 203.694 286.847 203.408 286.809 203.091C286.772 202.774 286.485 202.548 286.169 202.585L280.628 203.236C282.688 201.526 284.541 200.048 286.078 198.853L289.481 198.68C289.8 198.662 290.044 198.39 290.028 198.072Z" fill="#528E8D"/>
<path d="M248.3 205.344C248.3 205.344 243.218 210.189 238.753 203.41C234.289 196.632 238.036 190.245 243.777 186.439C249.517 182.633 251 169.17 258.429 167.505C265.858 165.841 263.441 178.523 262.858 186.087C262.275 193.652 263.814 200.062 261.904 204.322C259.993 208.582 253.041 211.865 248.3 205.344Z" fill="#6DA1A4"/>
<path d="M260.289 176.468C260.079 176.171 259.668 176.101 259.37 176.311L257.751 177.457C258.672 174.97 259.26 173.527 259.287 173.461C259.425 173.125 259.264 172.739 258.928 172.601C258.591 172.463 258.207 172.624 258.068 172.96C258.04 173.027 257.426 174.536 256.467 177.131L255.964 175.428C255.861 175.078 255.495 174.879 255.146 174.982C254.796 175.085 254.597 175.451 254.7 175.801L255.708 179.216C254.947 181.34 254.051 183.936 253.098 186.889L251.408 181.167C251.305 180.817 250.939 180.618 250.59 180.721C250.24 180.824 250.041 181.19 250.144 181.54L252.385 189.131C252.004 190.35 251.616 191.62 251.228 192.933L249.775 189.206C249.642 188.867 249.262 188.691 248.921 188.832C248.582 188.965 248.414 189.346 248.547 189.686L250.624 195.009C250.054 196.998 249.487 199.073 248.937 201.215C247.826 199.282 245.737 195.525 244.33 192.97C244.155 192.651 243.751 192.536 243.435 192.71C243.116 192.886 243 193.287 243.175 193.605C246.538 199.709 247.846 202.083 248.488 202.991C246.208 212.169 244.294 222.421 243.821 232.191C243.803 232.555 244.083 232.864 244.447 232.881C244.523 232.884 244.596 232.875 244.665 232.855C244.927 232.778 245.124 232.542 245.137 232.255C245.607 222.559 247.511 212.375 249.778 203.258C250.837 202.622 256.081 199.857 259.378 198.139C259.701 197.97 259.826 197.572 259.658 197.25C259.49 196.928 259.095 196.799 258.769 196.97C254.106 199.4 251.593 200.727 250.225 201.49C250.77 199.373 251.33 197.323 251.893 195.357L257.546 191.732C257.853 191.536 257.942 191.128 257.745 190.821C257.549 190.515 257.141 190.423 256.835 190.622L252.452 193.432C252.856 192.065 253.258 190.745 253.655 189.479L260.156 184.197C260.438 183.967 260.482 183.552 260.252 183.27C260.023 182.987 259.607 182.945 259.326 183.174L254.384 187.189C255.324 184.281 256.207 181.724 256.957 179.632L260.131 177.385C260.428 177.176 260.499 176.764 260.289 176.468Z" fill="#528E8D"/>
</g>
<path d="M105.765 218.992H82.6062C81.6714 218.992 80.7568 218.552 80.2777 217.749C79.597 216.608 79.8893 215.186 80.8879 214.399C93.3736 204.558 89.5728 175.778 88.841 170.986C88.7832 170.607 89.0379 170.254 89.4156 170.188L93.0968 169.537C93.4852 169.469 93.8534 169.728 93.9153 170.117C94.6531 174.776 98.0743 199.936 88.4297 213.768C88.4062 213.802 88.4297 213.847 88.4707 213.847H105.765C106.154 213.847 106.47 214.163 106.47 214.552V218.286C106.47 218.677 106.154 218.992 105.765 218.992Z" fill="#5A89C6"/>
<path d="M104.684 208.127L102.982 208.412C101.242 208.704 99.5945 207.529 99.3029 205.788L84.8159 119.26C84.5243 117.519 85.6989 115.872 87.4401 115.58L89.1423 115.295C90.8827 115.004 92.5298 116.179 92.8215 117.92L107.308 204.448C107.599 206.189 106.425 207.836 104.684 208.127Z" fill="#5A89C6"/>
<path d="M144.978 218.991H114.528C113.092 218.991 111.928 217.827 111.928 216.391V214.861C111.928 213.425 113.092 212.261 114.528 212.261H144.978C146.414 212.261 147.579 213.425 147.579 214.861V216.391C147.579 217.828 146.415 218.991 144.978 218.991Z" fill="#5A89C6"/>
<path d="M267.269 224.602H53.62C51.9098 224.602 50.5234 223.216 50.5234 221.506C50.5234 219.796 51.9098 218.409 53.62 218.409H267.269C268.979 218.409 270.366 219.796 270.366 221.506C270.365 223.216 268.979 224.602 267.269 224.602Z" fill="#EABC32"/>
<path d="M256.539 203.809C254.039 203.809 252.012 205.835 252.012 208.341C252.012 210.841 254.038 212.873 256.539 212.873C259.044 212.873 261.071 210.841 261.071 208.341C261.071 205.835 259.044 203.809 256.539 203.809ZM256.539 211.459C254.815 211.459 253.422 210.064 253.422 208.341C253.422 206.618 254.816 205.218 256.539 205.218C258.263 205.218 259.662 206.618 259.662 208.341C259.662 210.064 258.263 211.459 256.539 211.459Z" fill="#E5D157"/>
<path d="M253.632 204.675C253.632 204.675 253.493 216.8 243.02 218.41H240.396C229.927 216.8 229.783 204.675 229.783 204.675L241.708 205.539L253.632 204.675Z" fill="#E5D157"/>
<path d="M253.632 204.676C253.632 205.619 248.293 206.385 241.708 206.385C235.124 206.385 229.785 205.62 229.785 204.676C229.785 203.732 235.124 202.967 241.708 202.967C248.293 202.967 253.632 203.732 253.632 204.676Z" fill="#FFEB88"/>
<path d="M250.387 204.675C250.387 205.153 246.502 205.54 241.708 205.54C236.915 205.54 233.029 205.153 233.029 204.675C233.029 204.198 236.915 203.811 241.708 203.811C246.502 203.811 250.387 204.198 250.387 204.675Z" fill="#18203D"/>
<path d="M80.5938 139L74.5129 142.539V150.009C74.5129 152.463 72.5217 154.454 70.0629 154.454H33.8152C31.3611 154.454 29.3652 152.463 29.3652 150.009V127.991C29.3652 125.537 31.3611 123.541 33.8152 123.541H70.0629C72.5217 123.541 74.5129 125.537 74.5129 127.991V135.456L80.5938 139Z" fill="white"/>
<path d="M63.3995 147.971H40.4823C39.5744 147.971 38.8379 147.235 38.8379 146.326V131.671C38.8379 130.763 39.5737 130.026 40.4823 130.026H63.3995C64.3074 130.026 65.0439 130.762 65.0439 131.671V146.326C65.0439 147.235 64.3074 147.971 63.3995 147.971Z" fill="#E5D157"/>
<path d="M62.8559 132.775L51.942 138.999L41.0273 132.775" stroke="white" stroke-width="1.344" stroke-miterlimit="10" stroke-linecap="round" stroke-linejoin="round"/>
<path d="M104.886 73.3572V95.3753C104.886 97.8294 102.895 99.8199 100.436 99.8199H85.8515L82.3067 105.901L78.7673 99.8199H64.1883C61.7341 99.8199 59.7383 97.8288 59.7383 95.3753V73.3572C59.7383 70.9031 61.7341 68.9072 64.1883 68.9072H100.436C102.895 68.9072 104.886 70.9031 104.886 73.3572Z" fill="#E5D157"/>
<path d="M74.6799 84.4894C74.6799 86.0995 73.3749 87.4045 71.7647 87.4045C70.1546 87.4045 68.8496 86.0995 68.8496 84.4894C68.8496 82.8792 70.1546 81.5742 71.7647 81.5742C73.3749 81.5742 74.6799 82.8792 74.6799 84.4894Z" fill="white"/>
<path d="M85.2268 84.4894C85.2268 86.0995 83.9217 87.4045 82.3116 87.4045C80.7015 87.4045 79.3965 86.0995 79.3965 84.4894C79.3965 82.8792 80.7015 81.5742 82.3116 81.5742C83.9217 81.5742 85.2268 82.8792 85.2268 84.4894Z" fill="white"/>
<path d="M95.7717 84.4894C95.7717 86.0995 94.4667 87.4045 92.8565 87.4045C91.2464 87.4045 89.9414 86.0995 89.9414 84.4894C89.9414 82.8792 91.2464 81.5742 92.8565 81.5742C94.4667 81.5742 95.7717 82.8792 95.7717 84.4894Z" fill="white"/>
<path d="M139.469 48.96L137.742 49.4802C137.332 49.6038 136.899 49.3713 136.775 48.9607L134.695 42.0526C134.572 41.642 134.804 41.2092 135.215 41.0855L136.942 40.5654C137.352 40.4418 137.785 40.6743 137.908 41.0849L139.988 47.993C140.112 48.4043 139.879 48.8371 139.469 48.96Z" fill="#D15735"/>
<path d="M132.712 52.4776C132.495 54.0212 132.43 56.1125 133.072 58.2434C133.714 60.3784 134.924 62.0852 135.957 63.2525C136.954 64.3734 138.516 64.7967 139.948 64.366L141.291 63.9615L143.423 71.043C143.423 71.043 132.88 72.1599 129.053 59.453C125.228 46.7502 134.636 41.8594 134.636 41.8594L136.768 48.9416L135.425 49.3461C133.993 49.7776 132.925 50.9932 132.712 52.4776Z" fill="#D15735"/>
<path d="M143.532 62.4541L141.805 62.9742C141.394 63.0979 141.161 63.5306 141.285 63.9406L143.365 70.8487C143.489 71.2593 143.921 71.4911 144.332 71.3682L146.059 70.848C146.47 70.7244 146.702 70.2916 146.578 69.8817L144.499 62.9735C144.375 62.563 143.942 62.3304 143.532 62.4541Z" fill="#D15735"/>
<path d="M126.802 74.0553L128.178 71.6099C126.001 70.5777 118.325 66.3226 117.462 57.5577C116.378 46.5121 122.839 40.165 122.839 40.165L128.904 43.5862C128.904 43.5862 122.764 49.0334 122.764 57.1855C122.764 64.8852 127.396 68.8339 129.078 70.0119L130.303 67.8346L134.497 74.0547H126.802V74.0553Z" fill="#18203D"/>
<path d="M151.515 38.085L150.139 40.5304C152.316 41.5626 159.993 45.8177 160.855 54.5826C161.939 65.6282 155.478 71.9753 155.478 71.9753L149.413 68.5541C149.413 68.5541 155.553 63.1069 155.553 54.9548C155.553 47.2551 150.921 43.3064 149.239 42.1284L148.014 44.3057L143.82 38.0856L151.515 38.085Z" fill="#18203D"/>
<path d="M265.125 146.2V169.973C265.125 172.406 263.155 174.377 260.721 174.377H236.954C234.521 174.377 232.545 172.406 232.545 169.973V146.2C232.545 143.767 234.521 141.797 236.954 141.797H260.721C263.155 141.797 265.125 143.767 265.125 146.2Z" fill="white"/>
<path d="M252.969 158.276C255.254 155.992 255.254 152.288 252.969 150.003C250.684 147.718 246.98 147.718 244.695 150.003C242.411 152.288 242.411 155.992 244.695 158.276C246.98 160.561 250.684 160.561 252.969 158.276Z" fill="#E5D157"/>
<path d="M258.839 172.006V174.377H238.832V172.006C238.832 166.48 243.313 162.005 248.838 162.005C251.601 162.005 254.101 163.121 255.912 164.932C257.722 166.743 258.839 169.243 258.839 172.006Z" fill="#E5D157"/>
<path d="M245.751 121.862C246.714 120.952 248.231 120.995 249.142 121.958C250.052 122.921 250.009 124.438 249.046 125.349C248.083 126.259 246.565 126.216 245.656 125.253C244.746 124.29 244.788 122.772 245.751 121.862Z" fill="#DB9431"/>
<path d="M241.209 106.824C242.017 106.06 243.293 106.095 244.057 106.904C244.821 107.713 244.785 108.988 243.976 109.752C243.168 110.516 241.892 110.481 241.128 109.672C240.364 108.863 240.401 107.588 241.209 106.824Z" fill="#447777"/>
<path d="M228.315 105.042C228.825 104.559 229.63 104.582 230.112 105.093C230.595 105.603 230.572 106.408 230.061 106.89C229.551 107.373 228.746 107.35 228.263 106.839C227.781 106.329 227.804 105.524 228.315 105.042Z" fill="#C9414E"/>
<path d="M116.823 129.425C115.565 129.01 114.882 127.654 115.297 126.396C115.713 125.138 117.069 124.454 118.327 124.87C119.585 125.285 120.268 126.641 119.853 127.899C119.438 129.157 118.081 129.84 116.823 129.425Z" fill="#DB9431"/>
<path d="M107.098 133.172C106.042 132.823 105.468 131.684 105.817 130.628C106.166 129.571 107.305 128.997 108.361 129.346C109.417 129.695 109.991 130.834 109.643 131.89C109.295 132.947 108.155 133.521 107.098 133.172Z" fill="#447777"/>
<path d="M111.496 144.196C110.83 143.977 110.468 143.257 110.687 142.59C110.907 141.923 111.627 141.561 112.293 141.781C112.96 142.002 113.322 142.721 113.102 143.387C112.882 144.054 112.163 144.417 111.496 144.196Z" fill="#C9414E"/>
</svg>
